<svg width="393" height="852" viewBox="0 0 393 852" fill="none" xmlns="http://www.w3.org/2000/svg">
<g clip-path="url(#clip0_97_4)">
<rect width="393" height="852" fill="url(#paint0_linear_97_4)"/>
<path d="M173.191 72.5714L167.695 55.7714H171.727L176.503 70.6514H174.487L179.479 55.7714H183.079L187.879 70.6514H185.935L190.831 55.7714H194.551L189.055 72.5714H184.879L180.631 59.5154H181.735L177.367 72.5714H173.191ZM201.017 62.5394H209.105V65.5634H201.017V62.5394ZM201.305 69.4514H210.449V72.5714H197.441V55.7714H210.137V58.8914H201.305V69.4514ZM214.263 72.5714V55.7714H218.151V69.4034H226.575V72.5714H214.263ZM229.467 72.5714V55.7714H233.355V69.4034H241.779V72.5714H229.467ZM252.55 72.8594C251.222 72.8594 249.99 72.6434 248.854 72.2114C247.734 71.7794 246.758 71.1714 245.926 70.3874C245.11 69.6034 244.47 68.6834 244.006 67.6274C243.558 66.5714 243.334 65.4194 243.334 64.1714C243.334 62.9234 243.558 61.7714 244.006 60.7154C244.47 59.6594 245.118 58.7394 245.95 57.9554C246.782 57.1714 247.758 56.5634 248.878 56.1314C249.998 55.6994 251.214 55.4834 252.526 55.4834C253.854 55.4834 255.07 55.6994 256.174 56.1314C257.294 56.5634 258.262 57.1714 259.078 57.9554C259.91 58.7394 260.558 59.6594 261.022 60.7154C261.486 61.7554 261.718 62.9074 261.718 64.1714C261.718 65.4194 261.486 66.5794 261.022 67.6514C260.558 68.7074 259.91 69.6274 259.078 70.4114C258.262 71.1794 257.294 71.7794 256.174 72.2114C255.07 72.6434 253.862 72.8594 252.55 72.8594ZM252.526 69.5474C253.278 69.5474 253.966 69.4194 254.59 69.1634C255.23 68.9074 255.79 68.5394 256.27 68.0594C256.75 67.5794 257.118 67.0114 257.374 66.3554C257.646 65.6994 257.782 64.9714 257.782 64.1714C257.782 63.3714 257.646 62.6434 257.374 61.9874C257.118 61.3314 256.75 60.7634 256.27 60.2834C255.806 59.8034 255.254 59.4354 254.614 59.1794C253.974 58.9234 253.278 58.7954 252.526 58.7954C251.774 58.7954 251.078 58.9234 250.438 59.1794C249.814 59.4354 249.262 59.8034 248.782 60.2834C248.302 60.7634 247.926 61.3314 247.654 61.9874C247.398 62.6434 247.27 63.3714 247.27 64.1714C247.27 64.9554 247.398 65.6834 247.654 66.3554C247.926 67.0114 248.294 67.5794 248.758 68.0594C249.238 68.5394 249.798 68.9074 250.438 69.1634C251.078 69.4194 251.774 69.5474 252.526 69.5474ZM273.472 72.8594C272.144 72.8594 270.92 72.6514 269.8 72.2354C268.696 71.8034 267.728 71.1954 266.896 70.4114C266.08 69.6274 265.44 68.7074 264.976 67.6514C264.528 66.5954 264.304 65.4354 264.304 64.1714C264.304 62.9074 264.528 61.7474 264.976 60.6914C265.44 59.6354 266.088 58.7154 266.92 57.9314C267.752 57.1474 268.728 56.5474 269.848 56.1314C270.968 55.6994 272.2 55.4834 273.544 55.4834C275.032 55.4834 276.368 55.7314 277.552 56.2274C278.752 56.7234 279.76 57.4434 280.576 58.3874L278.08 60.6914C277.472 60.0514 276.808 59.5794 276.088 59.2754C275.368 58.9554 274.584 58.7954 273.736 58.7954C272.92 58.7954 272.176 58.9234 271.504 59.1794C270.832 59.4354 270.248 59.8034 269.752 60.2834C269.272 60.7634 268.896 61.3314 268.624 61.9874C268.368 62.6434 268.24 63.3714 268.24 64.1714C268.24 64.9554 268.368 65.6754 268.624 66.3314C268.896 66.9874 269.272 67.5634 269.752 68.0594C270.248 68.5394 270.824 68.9074 271.48 69.1634C272.152 69.4194 272.888 69.5474 273.688 69.5474C274.456 69.5474 275.2 69.4274 275.92 69.1874C276.656 68.9314 277.368 68.5074 278.056 67.9154L280.264 70.7234C279.352 71.4114 278.288 71.9394 277.072 72.3074C275.872 72.6754 274.672 72.8594 273.472 72.8594ZM276.712 70.2194V63.9074H280.264V70.7234L276.712 70.2194Z" fill="#145A32"/>
<path d="M134.609 66.9106C134.609 67.4395 134.399 67.9468 134.025 68.3209C133.651 68.6949 133.143 68.905 132.615 68.905H120.648C120.119 68.905 119.612 68.6949 119.238 68.3209C118.864 67.9468 118.654 67.4395 118.654 66.9106C118.654 66.3816 118.864 65.8744 119.238 65.5003C119.612 65.1263 120.119 64.9162 120.648 64.9162H132.615C133.143 64.9162 133.651 65.1263 134.025 65.5003C134.399 65.8744 134.609 66.3816 134.609 66.9106ZM120.648 47.6313H149.899C150.428 47.6313 150.936 47.4212 151.31 47.0471C151.684 46.6731 151.894 46.1658 151.894 45.6369C151.894 45.1079 151.684 44.6006 151.31 44.2266C150.936 43.8526 150.428 43.6425 149.899 43.6425H120.648C120.119 43.6425 119.612 43.8526 119.238 44.2266C118.864 44.6006 118.654 45.1079 118.654 45.6369C118.654 46.1658 118.864 46.6731 119.238 47.0471C119.612 47.4212 120.119 47.6313 120.648 47.6313ZM120.648 58.2681H129.955C130.484 58.2681 130.992 58.058 131.366 57.684C131.74 57.31 131.95 56.8027 131.95 56.2737C131.95 55.7448 131.74 55.2375 131.366 54.8635C130.992 54.4894 130.484 54.2793 129.955 54.2793H120.648C120.119 54.2793 119.612 54.4894 119.238 54.8635C118.864 55.2375 118.654 55.7448 118.654 56.2737C118.654 56.8027 118.864 57.31 119.238 57.684C119.612 58.058 120.119 58.2681 120.648 58.2681ZM155.883 58.9329C155.883 61.7584 154.299 64.5106 151.176 67.1134C149.824 68.2332 148.358 69.2086 146.803 70.0235C146.526 70.1622 146.22 70.2344 145.911 70.2344C145.601 70.2344 145.295 70.1622 145.018 70.0235C143.463 69.2086 141.997 68.2332 140.645 67.1134C137.522 64.5106 135.939 61.7584 135.939 58.9329C135.939 57.7782 136.274 56.6484 136.903 55.6798C137.531 54.7112 138.427 53.9451 139.481 53.474C140.535 53.003 141.703 52.847 142.844 53.025C143.985 53.203 145.05 53.7073 145.911 54.4771C146.771 53.7073 147.836 53.203 148.977 53.025C150.118 52.847 151.286 53.003 152.34 53.474C153.395 53.9451 154.29 54.7112 154.919 55.6798C155.547 56.6484 155.882 57.7782 155.883 58.9329ZM151.894 58.9329C151.894 58.404 151.684 57.8967 151.31 57.5227C150.936 57.1487 150.428 56.9385 149.899 56.9385C149.37 56.9385 148.863 57.1487 148.489 57.5227C148.115 57.8967 147.905 58.404 147.905 58.9329C147.905 59.4619 147.695 59.9692 147.321 60.3432C146.947 60.7172 146.44 60.9274 145.911 60.9274C145.382 60.9274 144.874 60.7172 144.5 60.3432C144.126 59.9692 143.916 59.4619 143.916 58.9329C143.916 58.404 143.706 57.8967 143.332 57.5227C142.958 57.1487 142.451 56.9385 141.922 56.9385C141.393 56.9385 140.886 57.1487 140.512 57.5227C140.137 57.8967 139.927 58.404 139.927 58.9329C139.927 61.7966 143.725 64.6552 145.911 65.9616C148.094 64.6569 151.894 61.7966 151.894 58.9329Z" fill="#145A32"/>
</g>
<defs>
<linearGradient id="paint0_linear_97_4" x1="196.5" y1="0" x2="196.5" y2="852" gradientUnits="userSpaceOnUse">
<stop stop-color="#52C77E"/>
<stop offset="1" stop-color="white"/>
</linearGradient>
<clipPath id="clip0_97_4">
<rect width="393" height="852" fill="white"/>
</clipPath>
</defs>
</svg>
